<svg id="svg2985" xmlns="http://www.w3.org/2000/svg" viewBox="0 0 300 120.7"><defs><style>.cls-1{fill:#003f90;fill-rule:evenodd;}</style></defs><polygon id="Fill-1" class="cls-1" points="1.4 0.9 1.4 117.9 75.1 117.9 75.1 95 26.2 95 26.2 70.4 75.1 70.4 75.1 47.5 26.2 47.5 26.2 23.8 75.1 23.8 75.1 0.9 1.4 0.9"/><g id="Group-4"><path id="Fill-2" class="cls-1" d="M273.17,1.1V68c0,18.5-9.4,28-24.9,28s-24.9-9.8-24.9-28.9V1.1H198V67.8c0,34.4,19,51.9,50,51.9s50.7-17.3,50.7-52.7V1.1Z"/></g><g id="Group-7"><path id="Fill-5" class="cls-1" d="M160.76,82.7c0,7.6-5.3,11.6-14.2,12.5-1.2.1-2.5.2-3.8.2h-21.9V69.7H142c1.7,0,3.2.1,4.6.2,9.8,1.1,14.2,5.6,14.2,12.4v.4Zm-39.9-59.1h16.8a25.57,25.57,0,0,1,8.9,1.4c5,1.8,7.7,5.4,7.7,10.6V36c0,5.5-2.8,8.9-7.7,10.8A30,30,0,0,1,136,48.4h-15.1Zm43.5,33.2c8.3-4.7,15.2-12,15.2-25.2v-.3a27.07,27.07,0,0,0-7.9-19.8c-5.7-5.8-14.3-9.3-25.1-10.1-1.7-.1-3.4-.2-5.1-.2H96.06V118h46.7c1.3,0,2.6,0,3.8-.1,23.9-1,39.4-11.6,39.4-31.9v-.3C186,69.9,177.76,62,164.36,56.8Z"/></g></svg>